<?xml version="1.0" encoding="UTF-8" standalone="no"?>
<!-- Created with Inkscape (http://www.inkscape.org/) -->

<svg
   width="52.840065mm"
   height="52.851303mm"
   viewBox="0 0 52.840065 52.851302"
   version="1.1"
   id="svg5"
   inkscape:version="1.1 (c68e22c387, 2021-05-23)"
   sodipodi:docname="logo.svg"
   inkscape:export-filename="/home/pro/Code/src/github.com/cryptellation/website/assets/favicon.png"
   inkscape:export-xdpi="30.757992"
   inkscape:export-ydpi="30.757992"
   xmlns:inkscape="http://www.inkscape.org/namespaces/inkscape"
   xmlns:sodipodi="http://sodipodi.sourceforge.net/DTD/sodipodi-0.dtd"
   xmlns="http://www.w3.org/2000/svg"
   xmlns:svg="http://www.w3.org/2000/svg">
  <sodipodi:namedview
     id="namedview7"
     pagecolor="#33447e"
     bordercolor="#666666"
     borderopacity="1.0"
     inkscape:pageshadow="2"
     inkscape:pageopacity="0"
     inkscape:pagecheckerboard="0"
     inkscape:document-units="mm"
     showgrid="false"
     fit-margin-top="0"
     fit-margin-left="0"
     fit-margin-right="0"
     fit-margin-bottom="0"
     inkscape:zoom="1.8523912"
     inkscape:cx="60.732312"
     inkscape:cy="73.418617"
     inkscape:window-width="1920"
     inkscape:window-height="1011"
     inkscape:window-x="0"
     inkscape:window-y="32"
     inkscape:window-maximized="1"
     inkscape:current-layer="layer1" />
  <defs
     id="defs2" />
  <g
     inkscape:label="Calque 1"
     inkscape:groupmode="layer"
     id="layer1"
     transform="translate(-9.3910892,-10.405991)">
    <path
       id="path936"
       style="fill:#ffffff;stroke-width:0.152208"
       d="m 28.169464,10.405991 a 6.1130612,6.1130612 0 0 0 -6.113281,6.112983 6.1130612,6.1130612 0 0 0 6.113281,6.112983 6.1130612,6.1130612 0 0 0 6.112983,-6.112983 6.1130612,6.1130612 0 0 0 -6.112983,-6.112983 z m 0,1.363627 a 4.7493512,4.7493512 0 0 1 4.749356,4.749356 4.7493512,4.7493512 0 0 1 -4.749356,4.749357 4.7493512,4.7493512 0 0 1 -4.749357,-4.749357 4.7493512,4.7493512 0 0 1 4.749357,-4.749356 z" />
    <path
       id="path936-3-7"
       style="fill:#ffffff;stroke-width:0.152208"
       d="m 28.070037,51.031327 a 6.1130612,6.1130612 0 0 0 -6.113281,6.112984 6.1130612,6.1130612 0 0 0 6.113281,6.112983 6.1130612,6.1130612 0 0 0 6.112983,-6.112983 6.1130612,6.1130612 0 0 0 -6.112983,-6.112984 z m 0,1.363627 a 4.7493512,4.7493512 0 0 1 4.749356,4.749357 4.7493512,4.7493512 0 0 1 -4.749356,4.749357 4.7493512,4.7493512 0 0 1 -4.749357,-4.749357 4.7493512,4.7493512 0 0 1 4.749357,-4.749357 z" />
    <path
       id="path936-3"
       style="fill:#ffffff;stroke-width:0.152208"
       d="m 56.118172,40.028788 a 6.1130612,6.1130612 0 0 0 -6.113281,6.112984 6.1130612,6.1130612 0 0 0 6.113281,6.112983 6.1130612,6.1130612 0 0 0 6.112983,-6.112983 6.1130612,6.1130612 0 0 0 -6.112983,-6.112984 z m 0,1.363627 a 4.7493512,4.7493512 0 0 1 4.749356,4.749357 4.7493512,4.7493512 0 0 1 -4.749356,4.749357 4.7493512,4.7493512 0 0 1 -4.749357,-4.749357 4.7493512,4.7493512 0 0 1 4.749357,-4.749357 z" />
    <path
       id="path936-3-6"
       style="fill:#ffffff;stroke-width:0.152208"
       d="m 15.50437,30.718657 a 6.1130612,6.1130612 0 0 0 -6.1132808,6.112984 6.1130612,6.1130612 0 0 0 6.1132808,6.112983 6.1130612,6.1130612 0 0 0 6.112983,-6.112983 6.1130612,6.1130612 0 0 0 -6.112983,-6.112984 z m 0,1.363627 a 4.7493512,4.7493512 0 0 1 4.749356,4.749357 4.7493512,4.7493512 0 0 1 -4.749356,4.749357 4.7493512,4.7493512 0 0 1 -4.749357,-4.749357 4.7493512,4.7493512 0 0 1 4.749357,-4.749357 z" />
    <path
       style="display:inline;fill:none;fill-rule:evenodd;stroke:#ffffff;stroke-width:1.2;stroke-linecap:round;stroke-linejoin:miter;stroke-miterlimit:3.7;stroke-dasharray:none;stroke-opacity:1"
       d="m 21.462676,38.197531 28.696892,6.57835"
       id="path2930"
       inkscape:connector-type="polyline"
       inkscape:connector-curvature="0"
       inkscape:connection-start="#path936-3-6"
       inkscape:connection-end="#path936-3" />
    <path
       style="fill:none;fill-rule:evenodd;stroke:#ffffff;stroke-width:1.2;stroke-linecap:round;stroke-linejoin:miter;stroke-miterlimit:4;stroke-dasharray:none;stroke-opacity:1"
       d="m 18.738492,31.644418 6.196552,-9.938222"
       id="path4362"
       inkscape:connector-type="polyline"
       inkscape:connector-curvature="0"
       inkscape:connection-end="#path936"
       inkscape:connection-start="#path936-3-6" />
    <path
       style="fill:none;fill-rule:evenodd;stroke:#ffffff;stroke-width:1.2;stroke-linecap:round;stroke-linejoin:miter;stroke-miterlimit:4;stroke-dasharray:none;stroke-opacity:1"
       d="m 18.720178,42.030304 6.133753,9.915344"
       id="path5162"
       inkscape:connector-type="polyline"
       inkscape:connector-curvature="0"
       inkscape:connection-start="#path936-3-6"
       inkscape:connection-end="#path936-3-7" />
  </g>
</svg>
